# xmcd
#
# Track frame offsets: 
#        150
#        20762
#        43325
#        64162
#        85412
#        100985
#        148252
#        178459
#        201620
#        230857
#        251895
#
# Disc length: 3843 seconds
#
# Revision: 0
# Processed by: cddbd v1.5.2PL0 Copyright (c) Steve Scherf et al.
# Submitted via: ExactAudioCopy v0.99pb5
#
DISCID=ba0f010b
DTITLE=Elliott And The Untouchables - Smokin' The Blues - Live
DYEAR=2001
DGENRE=Blues
TTITLE0=Call My Job
TTITLE1=Jumpin' Jelly
TTITLE2=Up The Line
TTITLE3=Crazy 'Bout You
TTITLE4=She's Tuff
TTITLE5=Goin' Down Slow
TTITLE6=More Than That
TTITLE7=Now I'm Gone (Bad Boy)
TTITLE8=Honey Hush
TTITLE9=Tigerman
TTITLE10=Where Were You
EXTD=
EXTT0=
EXTT1=
EXTT2=
EXTT3=
EXTT4=
EXTT5=
EXTT6=
EXTT7=
EXTT8=
EXTT9=
EXTT10=
PLAYORDER=
